<svg width="54" height="54" viewBox="0 0 54 54" fill="none" xmlns="http://www.w3.org/2000/svg">
<path d="M27 51C35.8366 51 43 43.8366 43 35C43 26.1634 35.8366 19 27 19C18.1634 19 11 26.1634 11 35C11 43.8366 18.1634 51 27 51Z" fill="#CCECFF" stroke="#CCECFF" stroke-width="4.032"/>
<path d="M15.1067 45.6666H5.66667C4.95942 45.6666 4.28115 45.3857 3.78105 44.8856C3.28095 44.3855 3 43.7072 3 43V8.33329C3 7.62605 3.28095 6.94777 3.78105 6.44768C4.28115 5.94758 4.95942 5.66663 5.66667 5.66663H48.3333C49.0406 5.66663 49.7189 5.94758 50.219 6.44768C50.7191 6.94777 51 7.62605 51 8.33329V43C51 43.7072 50.7191 44.3855 50.219 44.8856C49.7189 45.3857 49.0406 45.6666 48.3333 45.6666H38.8933" fill="#CCECFF"/>
<path d="M15.1067 45.6666H5.66667C4.95942 45.6666 4.28115 45.3857 3.78105 44.8856C3.28095 44.3855 3 43.7072 3 43V8.33329C3 7.62605 3.28095 6.94777 3.78105 6.44768C4.28115 5.94758 4.95942 5.66663 5.66667 5.66663H48.3333C49.0406 5.66663 49.7189 5.94758 50.219 6.44768C50.7191 6.94777 51 7.62605 51 8.33329V43C51 43.7072 50.7191 44.3855 50.219 44.8856C49.7189 45.3857 49.0406 45.6666 48.3333 45.6666H38.8933" stroke="#41BBFF" stroke-width="4.032" stroke-linecap="round" stroke-linejoin="round"/>
<path d="M27 19C23.8355 19 20.7421 19.9384 18.1109 21.6965C15.4797 23.4546 13.4289 25.9534 12.2179 28.8771C11.0069 31.8007 10.6901 35.0177 11.3074 38.1214C11.9248 41.2251 13.4487 44.0761 15.6863 46.3137C17.9239 48.5514 20.7749 50.0752 23.8786 50.6926C26.9823 51.3099 30.1993 50.9931 33.1229 49.7821C36.0466 48.5711 38.5454 46.5203 40.3035 43.8891C42.0616 41.2579 43 38.1645 43 35C43 30.7565 41.3143 26.6869 38.3137 23.6863C35.3131 20.6857 31.2435 19 27 19ZM3 19H51H3ZM37.6667 3V11V3ZM16.3333 3V11V3ZM27 35V27V35Z" fill="#CCECFF"/>
<path d="M3 19H51M37.6667 3V11M16.3333 3V11M27 35V27M27 19C23.8355 19 20.7421 19.9384 18.1109 21.6965C15.4797 23.4546 13.4289 25.9534 12.2179 28.8771C11.0069 31.8007 10.6901 35.0177 11.3074 38.1214C11.9248 41.2251 13.4487 44.0761 15.6863 46.3137C17.9239 48.5514 20.7749 50.0752 23.8786 50.6926C26.9823 51.3099 30.1993 50.9931 33.1229 49.7821C36.0466 48.5711 38.5454 46.5203 40.3035 43.8891C42.0616 41.2579 43 38.1645 43 35C43 30.7565 41.3143 26.6869 38.3137 23.6863C35.3131 20.6857 31.2435 19 27 19Z" stroke="#41BBFF" stroke-width="4.032" stroke-linecap="round" stroke-linejoin="round"/>
<path d="M26.8667 43H27.1333" stroke="#41BBFF" stroke-width="4.032" stroke-linecap="round" stroke-linejoin="round"/>
</svg>
