<svg width="16" height="16" viewBox="0 0 16 16" fill="none" xmlns="http://www.w3.org/2000/svg">
<path d="M5.18262 4.29681L13.3076 4.29726M5.18262 8.04682L13.3076 8.04732M5.18262 11.7968L13.3076 11.7973M2.37012 4.29639H2.37637M2.37012 8.04639H2.37637M2.37012 11.7964H2.37637M2.68262 4.29639C2.68262 4.46897 2.5427 4.60889 2.37012 4.60889C2.19753 4.60889 2.05762 4.46897 2.05762 4.29639C2.05762 4.1238 2.19753 3.98389 2.37012 3.98389C2.5427 3.98389 2.68262 4.1238 2.68262 4.29639ZM2.68262 8.04639C2.68262 8.21895 2.5427 8.35889 2.37012 8.35889C2.19753 8.35889 2.05762 8.21895 2.05762 8.04639C2.05762 7.87382 2.19753 7.73389 2.37012 7.73389C2.5427 7.73389 2.68262 7.87382 2.68262 8.04639ZM2.68262 11.7964C2.68262 11.9689 2.5427 12.1089 2.37012 12.1089C2.19753 12.1089 2.05762 11.9689 2.05762 11.7964C2.05762 11.6238 2.19753 11.4839 2.37012 11.4839C2.5427 11.4839 2.68262 11.6238 2.68262 11.7964Z" stroke="white" stroke-width="1.024" stroke-linecap="round" stroke-linejoin="round"/>
</svg>
