<svg width="24" height="24" viewBox="0 0 24 24" fill="none" xmlns="http://www.w3.org/2000/svg">
<path d="M17.0063 2.31409H7.27884C6.30676 2.31607 5.37508 2.7031 4.6877 3.39046C4.00036 4.07782 3.61332 5.00951 3.61134 5.98159V19.6016C3.61029 20.0121 3.72374 20.4147 3.93894 20.7642C4.15415 21.1138 4.46259 21.3964 4.8296 21.5803C5.19658 21.7641 5.60758 21.842 6.0164 21.8052C6.42523 21.7683 6.81564 21.6181 7.14384 21.3716L11.7188 17.9441C11.842 17.8528 11.9912 17.8035 12.1445 17.8035C12.2978 17.8035 12.447 17.8528 12.5701 17.9441L17.1413 21.3678C17.4692 21.6145 17.8593 21.7649 18.2679 21.802C18.6765 21.8392 19.0874 21.7617 19.4543 21.5782C19.8213 21.3947 20.1298 21.1125 20.3452 20.7633C20.5607 20.4142 20.6745 20.0119 20.6738 19.6016V5.98159C20.6719 5.00951 20.2848 4.07782 19.5975 3.39046C18.9101 2.7031 17.9784 2.31607 17.0063 2.31409Z" fill="#41BBFF"/>
</svg>
