<svg width="24" height="24" viewBox="0 0 24 24" fill="none" xmlns="http://www.w3.org/2000/svg">
<path d="M5.6792 11.1351V20.9015H9.49014V16.9101C9.49014 15.7054 10.6198 14.714 12.0003 14.714C13.3808 14.714 14.5104 15.7054 14.5104 16.9101V20.8992H18.3214V11.1351H5.6792ZM16.0269 7.6031V5.52654C16.0269 5.23826 16.2589 5.00623 16.5472 5.00623H18.4714C18.7597 5.00623 18.9917 5.23826 18.9917 5.52654V8.23123C18.9917 8.51951 18.7597 8.75154 18.4714 8.75154H17.3276" fill="#41BBFF"/>
<path d="M16.0269 7.6031V5.52654C16.0269 5.23826 16.2589 5.00623 16.5472 5.00623H18.4714C18.7597 5.00623 18.9917 5.23826 18.9917 5.52654V8.23123C18.9917 8.51951 18.7597 8.75154 18.4714 8.75154H17.3276M5.6792 11.1351V20.9015H9.49014V16.9101C9.49014 15.7054 10.6198 14.714 12.0003 14.714C13.3808 14.714 14.5104 15.7054 14.5104 16.9101V20.8992H18.3214V11.1351H5.6792Z" stroke="black" stroke-width="0.00024"/>
<path d="M18.4714 9.2906H17.3276C17.03 9.2906 16.7886 9.04919 16.7886 8.75154C16.7886 8.45388 17.03 8.21248 17.3276 8.21248H18.455V5.54529H16.5659V7.6031C16.5659 7.90076 16.3245 8.14216 16.0269 8.14216C15.7292 8.14216 15.4878 7.90076 15.4878 7.6031V5.52654C15.4878 4.94294 15.9636 4.46716 16.5472 4.46716H18.4714C19.055 4.46716 19.5308 4.94294 19.5308 5.52654V8.23123C19.5308 8.81482 19.055 9.2906 18.4714 9.2906Z" fill="#A3A3A3" stroke="black" stroke-width="0.00024"/>
<path d="M9.49014 20.707C7.87998 19.3476 6.66592 17.5429 5.6792 15.6V20.9015H9.49014V20.707Z" fill="#0889FF" stroke="black" stroke-width="0.00024"/>
<path d="M18.3214 21.4383H14.5104C14.2128 21.4383 13.9714 21.1969 13.9714 20.8992V16.9101C13.9714 15.9984 13.0854 15.2578 11.9979 15.2578C10.9104 15.2578 10.0245 15.9984 10.0245 16.9101V20.8992C10.0245 21.1969 9.78311 21.4383 9.48545 21.4383H5.6792C5.38154 21.4383 5.14014 21.1969 5.14014 20.8992V11.1351C5.14014 10.8375 5.38154 10.5961 5.6792 10.5961H12.2604C12.5581 10.5961 12.7995 10.8375 12.7995 11.1351C12.7995 11.4328 12.5581 11.6742 12.2604 11.6742H6.21826V20.3648H8.95342V16.9101C8.95342 15.4054 10.3198 14.182 12.0026 14.182C13.6854 14.182 15.0519 15.4054 15.0519 16.9101V20.3625H17.787V15.7758C17.787 15.4781 18.0284 15.2367 18.3261 15.2367C18.6237 15.2367 18.8651 15.4781 18.8651 15.7758V20.9015C18.8581 21.1968 18.619 21.4383 18.3214 21.4383Z" fill="#A3A3A3" stroke="black" stroke-width="0.00024"/>
<path d="M2.43736 11.2969L11.2944 3.22264C11.6835 2.86874 12.3163 2.86874 12.7053 3.22264L21.5624 11.2969C22.1647 11.8453 21.6163 12.6469 20.6413 12.6469H3.35845C2.38345 12.6492 1.83736 11.8453 2.43736 11.2969Z" fill="#41BBFF" stroke="black" stroke-width="0.00024"/>
<path d="M20.6415 13.1859H18.3165C18.0188 13.1859 17.7774 12.9445 17.7774 12.6469C17.7774 12.3492 18.0188 12.1078 18.3165 12.1078H20.6415C21.0001 12.1078 21.2251 11.9484 21.2673 11.8359C21.2743 11.8172 21.2907 11.7773 21.197 11.693L12.5579 3.81561C12.2977 3.57889 11.7024 3.57889 11.4423 3.81561L2.80087 11.6953C2.70946 11.7797 2.72353 11.8195 2.73056 11.8383C2.77509 11.9508 2.99775 12.1101 3.35868 12.1101H5.679C5.97665 12.1101 6.21806 12.3516 6.21806 12.6492C6.21806 12.9469 5.97665 13.1883 5.679 13.1883H3.35868C2.59462 13.1883 1.95478 12.8109 1.72743 12.2297C1.54696 11.7633 1.67587 11.2664 2.07431 10.9031L10.7157 3.02343C11.386 2.41171 12.6095 2.41171 13.2798 3.02343L21.9212 10.9031C22.3196 11.2664 22.4509 11.7633 22.2681 12.2297C22.0454 12.8086 21.4056 13.1859 20.6415 13.1859Z" fill="#A3A3A3" stroke="black" stroke-width="0.00024"/>
</svg>
