<svg width="28" height="28" viewBox="0 0 28 28" fill="none" xmlns="http://www.w3.org/2000/svg">
<path d="M9.33521 8.16665C9.34933 5.62911 9.46186 4.25488 10.3583 3.35844C11.3834 2.33331 13.0333 2.33331 16.3332 2.33331H17.4999C20.7997 2.33331 22.4496 2.33331 23.4747 3.35844C24.4999 4.38357 24.4999 6.03348 24.4999 9.33331V18.6666C24.4999 21.9664 24.4999 23.6163 23.4747 24.6415C22.4496 25.6666 20.7997 25.6666 17.4999 25.6666H16.3332C13.0333 25.6666 11.3834 25.6666 10.3583 24.6415C9.46186 23.745 9.34933 22.3708 9.33521 19.8333" stroke="#41BBFF" stroke-width="2.2476" stroke-linecap="round"/>
<path opacity="0.5" d="M9.33333 22.75C6.58348 22.75 5.20855 22.75 4.35427 21.8958C3.5 21.0414 3.5 19.6665 3.5 16.9167V11.0833C3.5 8.33348 3.5 6.95855 4.35427 6.10427C5.20855 5.25 6.58348 5.25 9.33333 5.25" stroke="#41BBFF" stroke-width="2.2476"/>
<path d="M17.5 14H7M7 14L9.33333 16.3333M7 14L9.33333 11.6666" stroke="#41BBFF" stroke-width="2.2476" stroke-linecap="round" stroke-linejoin="round"/>
</svg>
