<svg width="181.934570" height="165.010498" viewBox="0 0 181.935 165.01" fill="none" xmlns="http://www.w3.org/2000/svg" xmlns:xlink="http://www.w3.org/1999/xlink">
	<desc>
			Created with Pixso.
	</desc>
	<defs/>
	<path id="Vector" d="M90.968 116.353C76.9475 116.353 65.5818 104.988 65.5818 90.967C65.5818 76.9465 76.9475 65.5808 90.968 65.5808C104.989 65.5808 116.354 76.9465 116.354 90.967C116.354 104.988 104.989 116.353 90.968 116.353Z" stroke="#1C274C" stroke-opacity="1.000000" stroke-width="12.693125"/>
	<path id="Vector" d="M109.772 158.664C136.183 158.664 149.388 158.664 158.874 152.441C162.98 149.747 166.506 146.285 169.25 142.253C175.588 132.94 175.588 119.975 175.588 94.0442C175.588 68.1147 175.588 55.1492 169.25 45.8357C166.506 41.804 162.98 38.342 158.874 35.6482C152.778 31.6494 145.147 30.2202 133.464 29.7092C127.888 29.7092 123.089 25.5613 121.995 20.1936C120.354 12.1423 113.154 6.34668 104.792 6.34668L77.1428 6.34668C68.7803 6.34668 61.5798 12.1423 59.9397 20.1936C58.8464 25.5613 54.0461 29.7092 48.4709 29.7092C36.7876 30.2202 29.1567 31.6494 23.0613 35.6482C18.9548 38.342 15.429 41.804 12.6851 45.8357C6.34668 55.1492 6.34668 68.1147 6.34668 94.0442C6.34668 119.975 6.34668 132.94 12.6851 142.253C15.429 146.285 18.9548 149.747 23.0613 152.441C32.5474 158.664 45.7524 158.664 72.1628 158.664L109.772 158.664Z" stroke="#1C274C" stroke-opacity="1.000000" stroke-width="12.693125"/>
	<path id="Vector" d="M150.203 65.5811L141.741 65.5811" stroke="#1C274C" stroke-opacity="1.000000" stroke-width="12.693125" stroke-linecap="round"/>
</svg>
