<svg width="21.950684" height="21.990723" viewBox="0 0 21.9507 21.9907" fill="none" xmlns="http://www.w3.org/2000/svg" xmlns:xlink="http://www.w3.org/1999/xlink">
	<desc>
			Created with Pixso.
	</desc>
	<defs/>
	<path id="Vector" d="M2.43188 0.116699C3.80176 0.116699 15.5801 0.0683594 15.5801 0.0683594C15.8821 0.0673828 16.3447 0.170898 16.614 0.299805C16.614 0.299805 16.4387 0.111328 16.6848 0.366211C16.9053 0.594238 21.5481 5.38525 21.6389 5.48145C21.7297 5.57812 21.6719 5.52686 21.6719 5.52686C21.7981 5.80127 21.8823 6.27637 21.8823 6.57861L21.8823 19.6504C21.8823 20.6187 20.7231 21.9224 19.6162 21.9224C18.509 21.9224 3.41016 21.8774 2.30444 21.8774C1.19873 21.8774 0.116943 21.02 0.0683594 19.6758C0.0195312 18.332 0.116943 3.50732 0.116943 2.34033C0.116943 1.17285 1.06201 0.116699 2.43188 0.116699ZM2.18066 2.55762L2.20117 19.1006C2.20166 19.4014 2.44727 19.6479 2.74976 19.6494L19.2327 19.7368C19.3044 19.7373 19.3757 19.7236 19.4421 19.6968C19.5085 19.6694 19.5688 19.6294 19.6196 19.5786C19.6704 19.5283 19.7109 19.4678 19.7383 19.4019C19.7656 19.3354 19.7798 19.2642 19.7795 19.1924L19.76 6.83838C19.76 6.68799 19.6714 6.48047 19.5625 6.375L15.5657 2.50342C15.4561 2.39746 15.3684 2.43457 15.3684 2.58545L15.3684 7.39014C15.3684 7.84668 14.7346 8.63965 14.1606 8.63965L5.90332 8.63965C5.27441 8.63965 4.59619 7.99512 4.59619 7.39014C4.59619 6.78516 4.59424 2.58594 4.59424 2.58594C4.59424 2.43506 4.47241 2.31104 4.32202 2.30957L2.45239 2.28809C2.41675 2.2876 2.38159 2.29443 2.34839 2.30811C2.31543 2.32129 2.2854 2.34131 2.26025 2.36621C2.23486 2.39111 2.21484 2.4209 2.20117 2.4541C2.1875 2.48682 2.18066 2.52197 2.18066 2.55762ZM6.62964 2.61768L6.62964 6.41943C6.62964 6.56982 6.7522 6.69287 6.90308 6.69287L13.0146 6.69287C13.1667 6.69287 13.2881 6.57031 13.2881 6.41943L13.2881 2.61816C13.2881 2.54541 13.2593 2.47607 13.208 2.4248C13.1567 2.37354 13.0872 2.34424 13.0146 2.34424L6.90332 2.34424C6.75098 2.34424 6.62988 2.4668 6.62988 2.61816L6.62964 2.61768Z" fill="#41BBFF" fill-opacity="1.000000" fill-rule="evenodd"/>
	<path id="Vector" d="M15.5801 0.0683594C15.8821 0.0673828 16.3447 0.170898 16.614 0.299805C16.614 0.299805 16.4387 0.111328 16.6848 0.366211C16.9053 0.594238 21.5481 5.38525 21.6389 5.48145C21.7297 5.57812 21.6719 5.52686 21.6719 5.52686C21.7981 5.80127 21.8823 6.27637 21.8823 6.57861L21.8823 19.6504C21.8823 20.6187 20.7231 21.9224 19.6162 21.9224C18.509 21.9224 3.41016 21.8774 2.30444 21.8774C1.19873 21.8774 0.116943 21.02 0.0683594 19.6758C0.0195312 18.332 0.116943 3.50732 0.116943 2.34033C0.116943 1.17285 1.06201 0.116699 2.43188 0.116699C3.80176 0.116699 15.5801 0.0683594 15.5801 0.0683594ZM2.20117 19.1006C2.20166 19.4014 2.44727 19.6479 2.74976 19.6494L19.2327 19.7368C19.3044 19.7373 19.3757 19.7236 19.4421 19.6968C19.5085 19.6694 19.5688 19.6294 19.6196 19.5786C19.6704 19.5283 19.7109 19.4678 19.7383 19.4019C19.7656 19.3354 19.7798 19.2642 19.7795 19.1924L19.76 6.83838C19.76 6.68799 19.6714 6.48047 19.5625 6.375L15.5657 2.50342C15.4561 2.39746 15.3684 2.43457 15.3684 2.58545L15.3684 7.39014C15.3684 7.84668 14.7346 8.63965 14.1606 8.63965L5.90332 8.63965C5.27441 8.63965 4.59619 7.99512 4.59619 7.39014C4.59619 6.78516 4.59424 2.58594 4.59424 2.58594C4.59424 2.43506 4.47241 2.31104 4.32202 2.30957L2.45239 2.28809C2.41675 2.2876 2.38159 2.29443 2.34839 2.30811C2.31543 2.32129 2.2854 2.34131 2.26025 2.36621C2.23486 2.39111 2.21484 2.4209 2.20117 2.4541C2.1875 2.48682 2.18066 2.52197 2.18066 2.55762L2.20117 19.1006ZM6.62964 6.41943C6.62964 6.56982 6.7522 6.69287 6.90308 6.69287L13.0146 6.69287C13.1667 6.69287 13.2881 6.57031 13.2881 6.41943L13.2881 2.61816C13.2881 2.54541 13.2593 2.47607 13.208 2.4248C13.1567 2.37354 13.0872 2.34424 13.0146 2.34424L6.90332 2.34424C6.75098 2.34424 6.62988 2.4668 6.62988 2.61816L6.62964 2.61768L6.62964 6.41943Z" stroke="#41BBFF" stroke-opacity="1.000000" stroke-width="0.136719"/>
	<path id="Vector" d="M10.8457 10.5024C13.0574 10.5371 15.198 12.4751 15.198 14.8403C15.198 17.2056 13.1997 19.1855 10.9575 19.1499C8.71509 19.1147 6.48291 17.1318 6.48291 14.8374C6.48291 12.5435 8.63428 10.4673 10.8457 10.5024ZM8.63672 14.7832C8.63672 16.106 9.68726 17.0913 10.854 17.0859C12.0208 17.0806 13.0098 16.1113 13.0156 14.8042C13.0217 13.4966 11.9619 12.5684 10.8303 12.5684C9.69873 12.5684 8.63672 13.46 8.63672 14.7827L8.63672 14.7832Z" fill="#41BBFF" fill-opacity="1.000000" fill-rule="evenodd"/>
	<path id="Vector" d="M15.198 14.8403C15.198 17.2056 13.1997 19.1855 10.9575 19.1499C8.71509 19.1147 6.48291 17.1318 6.48291 14.8374C6.48291 12.5435 8.63428 10.4673 10.8457 10.5024C13.0574 10.5371 15.198 12.4751 15.198 14.8403ZM10.854 17.0859C12.0208 17.0806 13.0098 16.1113 13.0156 14.8042C13.0217 13.4966 11.9619 12.5684 10.8303 12.5684C9.69873 12.5684 8.63672 13.46 8.63672 14.7827L8.63672 14.7832C8.63672 16.106 9.68726 17.0913 10.854 17.0859Z" stroke="#41BBFF" stroke-opacity="1.000000" stroke-width="0.136719"/>
</svg>
