<svg width="45" height="45" viewBox="0 0 45 45" fill="none" xmlns="http://www.w3.org/2000/svg">
<path fill-rule="evenodd" clip-rule="evenodd" d="M28.125 19.6875C28.125 24.3474 24.3474 28.125 19.6875 28.125C15.0276 28.125 11.25 24.3474 11.25 19.6875C11.25 15.0276 15.0276 11.25 19.6875 11.25C24.3474 11.25 28.125 15.0276 28.125 19.6875ZM26.5862 28.5748C24.681 30.0557 22.2872 30.9375 19.6875 30.9375C13.4743 30.9375 8.4375 25.9007 8.4375 19.6875C8.4375 13.4743 13.4743 8.4375 19.6875 8.4375C25.9007 8.4375 30.9375 13.4743 30.9375 19.6875C30.9375 22.2872 30.0557 24.681 28.5748 26.586L37.557 35.5682L35.5682 37.5568L26.5862 28.5748Z" fill="#575757" stroke="#575757" stroke-width="0.675"/>
</svg>
