<svg width="45" height="46" viewBox="0 0 45 46" fill="none" xmlns="http://www.w3.org/2000/svg">
<path d="M32.7861 15.4963C35.3663 15.4963 37.458 13.4046 37.458 10.8245C37.458 8.24426 35.3663 6.15259 32.7861 6.15259C30.206 6.15259 28.1143 8.24426 28.1143 10.8245C28.1143 13.4046 30.206 15.4963 32.7861 15.4963Z" fill="#0889FF" stroke="black" stroke-width="1.664" stroke-linejoin="round"/>
<path d="M12.2295 27.6433C14.8097 27.6433 16.9014 25.5516 16.9014 22.9714C16.9014 20.3913 14.8097 18.2996 12.2295 18.2996C9.64931 18.2996 7.55762 20.3913 7.55762 22.9714C7.55762 25.5516 9.64931 27.6433 12.2295 27.6433Z" fill="#0889FF" stroke="black" stroke-width="1.664" stroke-linejoin="round"/>
<path d="M28.1144 13.23L16.2842 20.3975" stroke="black" stroke-width="1.664" stroke-linecap="round" stroke-linejoin="round"/>
<path d="M16.2842 25.3669L28.7491 32.7326" stroke="black" stroke-width="1.664" stroke-linecap="round" stroke-linejoin="round"/>
<path d="M32.7861 30.4463C35.3663 30.4463 37.458 32.538 37.458 35.1182C37.458 37.6983 35.3663 39.79 32.7861 39.79C30.206 39.79 28.1143 37.6983 28.1143 35.1182C28.1143 32.538 30.206 30.4463 32.7861 30.4463Z" fill="#0889FF" stroke="black" stroke-width="1.664" stroke-linejoin="round"/>
</svg>
