<svg width="46" height="46" viewBox="0 0 46 46" fill="none" xmlns="http://www.w3.org/2000/svg">
<path d="M38.3333 41.2083L37.0884 30.6274C36.7052 27.3708 33.9454 24.9167 30.6666 24.9167H15.3333C9.58325 24.9167 5.87866 19.6817 4.56536 14.4284L3.83325 11.5" stroke="#1C274C" stroke-width="2.875" stroke-linecap="round" stroke-linejoin="round"/>
<path opacity="0.5" d="M15.3333 24.9167V34.5C15.3333 38.1141 15.3333 39.9211 16.456 41.0439C17.5788 42.1667 19.3859 42.1667 22.9999 42.1667C26.614 42.1667 28.421 42.1667 29.5438 41.0439C30.6666 39.9211 30.6666 38.1141 30.6666 34.5V24.9167" stroke="#1C274C" stroke-width="2.875" stroke-linecap="round"/>
<path opacity="0.9" d="M22.9999 19.1667C27.2341 19.1667 30.6666 15.7342 30.6666 11.5C30.6666 7.26583 27.2341 3.83334 22.9999 3.83334C18.7657 3.83334 15.3333 7.26583 15.3333 11.5C15.3333 15.7342 18.7657 19.1667 22.9999 19.1667Z" stroke="#1C274C" stroke-width="2.875"/>
</svg>
