<svg width="28" height="28" viewBox="0 0 28 28" fill="none" xmlns="http://www.w3.org/2000/svg">
<path d="M25.6373 16.1167C23.8943 17.0021 21.9221 17.501 19.8333 17.501C12.7456 17.501 6.99992 11.7554 6.99992 4.66773C6.99992 3.93357 7.06156 3.2138 7.17997 2.51334C6.34557 2.63631 5.69008 2.84384 5.11868 3.19399C4.33377 3.67499 3.67385 4.33491 3.19285 5.11982C2.33325 6.52256 2.33325 8.43206 2.33325 12.251V13.4177C2.33325 16.1357 2.33325 17.4947 2.77729 18.5667C3.36933 19.9961 4.50493 21.1317 5.93426 21.7237C6.70462 22.0428 7.62318 22.1325 9.08776 22.1578C10.0798 22.1748 10.5759 22.1835 10.9698 22.4126C11.3638 22.6417 11.6091 23.0561 12.0997 23.8849L12.7321 24.9534C13.2958 25.9057 14.704 25.9057 15.2677 24.9534L15.9002 23.8849C16.3907 23.0561 16.636 22.6417 17.03 22.4126C17.424 22.1835 17.9199 22.1748 18.9121 22.1578C20.3767 22.1325 21.2952 22.0428 22.0656 21.7237C23.495 21.1317 24.6305 19.9961 25.2226 18.5667C25.4873 17.9277 25.5941 17.1867 25.6373 16.1167Z" fill="#41BBFF"/>
<path fill-rule="evenodd" clip-rule="evenodd" d="M15.2677 24.9534L15.9002 23.8849C16.3907 23.0561 16.636 22.6417 17.03 22.4126C17.424 22.1835 17.9199 22.1748 18.9121 22.1578C20.3767 22.1325 21.2952 22.0428 22.0656 21.7237C23.495 21.1317 24.6305 19.9961 25.2226 18.5667C25.4873 17.9277 25.5941 17.1867 25.6373 16.1167C23.8943 17.0021 21.9221 17.501 19.8333 17.501C12.7456 17.501 6.99992 11.7554 6.99992 4.66773C6.99992 3.93357 7.06156 3.2138 7.17997 2.51334C6.34557 2.63631 5.69008 2.84384 5.11868 3.19399C4.33377 3.67499 3.67385 4.33491 3.19285 5.11982C2.33325 6.52256 2.33325 8.43206 2.33325 12.251V13.4177C2.33325 16.1357 2.33325 17.4947 2.77729 18.5667C3.36933 19.9961 4.50493 21.1317 5.93426 21.7237C6.70462 22.0428 7.62318 22.1325 9.08776 22.1578C10.0798 22.1748 10.5759 22.1835 10.9698 22.4126C11.3638 22.6417 11.6091 23.0561 12.0997 23.8849L12.7321 24.9534C13.2958 25.9057 14.704 25.9057 15.2677 24.9534Z" fill="#41BBFF"/>
<path opacity="0.5" d="M15.75 2.33334H12.25C9.98667 2.33334 8.39401 2.33334 7.18005 2.51228C7.06165 3.21275 7 3.93252 7 4.66668C7 11.7543 12.7457 17.5 19.8333 17.5C21.9221 17.5 23.8944 17.0009 25.6374 16.1156C25.6667 15.3906 25.6667 14.5145 25.6667 13.4167V12.25C25.6667 8.43101 25.6667 6.5215 24.8071 5.11877C24.326 4.33386 23.6662 3.67394 22.8812 3.19294C21.4784 2.33334 19.569 2.33334 15.75 2.33334Z" fill="#41BBFF"/>
</svg>
