<svg width="27" height="27" viewBox="0 0 27 27" fill="none" xmlns="http://www.w3.org/2000/svg">
<path fill-rule="evenodd" clip-rule="evenodd" d="M4.8147 11.3887H12.3364V3.87085H14.5026V11.3887H22.2895V13.5549H14.5026V21.3457H12.3364V13.5549H4.8147V11.3887Z" fill="#41BBFF"/>
<path d="M13.2027 26.273C16.5818 26.2407 19.9276 24.8407 22.3333 22.4634C25.1907 19.6394 26.6623 15.4618 26.1494 11.4734C25.2695 4.63805 19.6509 0 13.1184 0C8.15555 0 3.33156 3.10461 1.2157 7.60648C-0.403593 11.0529 -0.406875 15.2141 1.2157 18.667C3.3168 23.1372 8.06094 26.2254 13.0337 26.273C13.09 26.2735 13.1463 26.2735 13.2027 26.273ZM13.0479 24.0838C8.00024 24.0352 3.29109 20.1316 2.35484 15.1271C1.69422 11.5987 2.94055 7.78094 5.53656 5.27516C8.56789 2.34938 13.3312 1.36883 17.2922 3.0275C20.8365 4.51172 23.4888 7.95703 23.9777 11.7529C24.3966 15.0062 23.2291 18.416 20.9344 20.7654C18.9219 22.8255 16.0995 24.0554 13.1884 24.0838C13.142 24.0838 13.0949 24.0838 13.0479 24.0838Z" fill="#41BBFF"/>
</svg>
