<svg width="54" height="54" viewBox="0 0 47 54" fill="none" xmlns="http://www.w3.org/2000/svg">
<path d="M44.6866 26.8192C45.4904 26.8192 46.216 26.3384 46.5293 25.5981C46.8425 24.8581 46.6827 24.0024 46.1229 23.4254L35.4515 12.4205C35.0748 12.0319 34.5564 11.8125 34.0151 11.8125C33.4738 11.8125 32.9557 12.0319 32.5788 12.4205L21.9073 23.4254C21.3479 24.0024 21.1878 24.8581 21.501 25.5981C21.8145 26.3384 22.5401 26.8192 23.3437 26.8192H32.0142V45.8277C32.0142 46.9327 32.9101 47.8286 34.0151 47.8286C35.1202 47.8286 36.016 46.9327 36.016 45.8277V26.8192H44.6866Z" fill="#41BBFF"/>
<path opacity="0.5" d="M23.3437 32.8219C24.1476 32.8219 24.8732 33.3026 25.1864 34.043C25.4996 34.783 25.3398 35.6386 24.7801 36.2157L14.1088 47.2206C13.732 47.6093 13.2137 47.8286 12.6724 47.8286C12.131 47.8286 11.6128 47.6093 11.2359 47.2206L0.564489 36.2157C0.00501296 35.6386 -0.154952 34.783 0.158308 34.043C0.471568 33.3026 1.19725 32.8219 2.00094 32.8219H10.6715V13.8134C10.6715 12.7083 11.5673 11.8125 12.6724 11.8125C13.7774 11.8125 14.6733 12.7083 14.6733 13.8134V32.8219H23.3437Z" fill="#41BBFF"/>
</svg>
